<svg width="938" height="220" viewBox="0 0 938 220" fill="none" xmlns="http://www.w3.org/2000/svg">
<path d="M74.5488 10.6272H77.3365C79.0268 10.6272 79.7903 9.6464 79.7903 8.34697C79.7903 7.03513 79.002 6.29437 78.2811 6.24885V6.16608C78.9487 5.96744 79.5062 5.43774 79.5062 4.37833C79.5062 3.12442 78.7605 2.15192 77.2122 2.15192H74.5488V10.6272ZM75.6461 9.53053V6.8158H77.269C78.1497 6.8158 78.7001 7.47793 78.7001 8.2849C78.7001 8.99669 78.2846 9.53053 77.2299 9.53053H75.6461ZM75.6461 5.81846V3.2403H77.1447C78.0147 3.2403 78.4302 3.77414 78.4302 4.47765C78.4302 5.29704 77.8549 5.81846 77.1163 5.81846H75.6461Z" fill="white"/>
<path d="M82.5918 10.6272H87.1941V9.52639H83.6891V6.93167H86.9135V5.83502H83.6891V3.25271H87.1515V2.15192H82.5918V10.6272Z" fill="white"/>
<path d="M89.5668 10.6272H89.8793C91.5341 10.6272 91.9318 9.19533 92.0277 6.47232L92.1413 3.23616H94.6236V10.6272H95.7067V2.15192H91.108L90.9837 6.13298C90.9055 8.58699 90.6499 9.48501 89.7798 9.50984L89.5668 9.51811V10.6272Z" fill="white"/>
<path d="M98.8047 2.15192V10.6272H99.8132L103.51 4.41144H103.577V10.6272H104.675V2.15192H103.659L99.9588 8.37594H99.8913V2.15192H98.8047Z" fill="white"/>
<path d="M112.083 10.6272H113.422L110.421 5.984L113.439 2.15192H112.079L109.249 5.73156H108.873V2.15192H107.775V10.6272H108.873V6.82821H109.626L112.083 10.6272Z" fill="white"/>
<path d="M116.033 2.15192V10.6272H117.042L120.738 4.41144H120.806V10.6272H121.903V2.15192H120.888L117.187 8.37594H117.12V2.15192H116.033Z" fill="white"/>
<path d="M125.004 2.15192V10.6272H126.012L129.709 4.41144H129.777V10.6272H130.874V2.15192H129.858L126.158 8.37594H126.091V2.15192H125.004ZM128.637 0C128.637 0.41797 128.438 0.786279 127.941 0.786279C127.436 0.786279 127.248 0.413831 127.248 0H126.378C126.378 0.93112 126.985 1.57256 127.941 1.57256C128.903 1.57256 129.51 0.93112 129.51 0H128.637Z" fill="white"/>
<path d="M70 24.6114H71.0973V20.9158H74.723V24.6114H75.8239V16.1361H74.723V19.8192H71.0973V16.1361H70V24.6114Z" fill="white"/>
<path d="M85.2393 20.3737C85.2393 17.6631 83.8473 16.0202 81.9652 16.0202C80.076 16.0202 78.6875 17.6631 78.6875 20.3737C78.6875 23.0802 80.076 24.7272 81.9652 24.7272C83.8473 24.7272 85.2393 23.0843 85.2393 20.3737ZM84.1527 20.3737C84.1527 22.4387 83.2152 23.5602 81.9652 23.5602C80.7116 23.5602 79.7777 22.4387 79.7777 20.3737C79.7777 18.3087 80.7116 17.1872 81.9652 17.1872C83.2152 17.1872 84.1527 18.3087 84.1527 20.3737Z" fill="white"/>
<path d="M88.1074 24.6114H90.8951C92.5854 24.6114 93.3489 23.6306 93.3489 22.3311C93.3489 21.0193 92.5605 20.2785 91.8397 20.233V20.1503C92.5073 19.9516 93.0648 19.4219 93.0648 18.3625C93.0648 17.1086 92.3191 16.1361 90.7708 16.1361H88.1074V24.6114ZM89.2047 23.5147V20.8H90.8276C91.7083 20.8 92.2587 21.4621 92.2587 22.2691C92.2587 22.9809 91.8432 23.5147 90.7885 23.5147H89.2047ZM89.2047 19.8026V17.2245H90.7033C91.5733 17.2245 91.9888 17.7583 91.9888 18.4618C91.9888 19.2812 91.4135 19.8026 90.6749 19.8026H89.2047Z" fill="white"/>
<path d="M100.685 16.1361H96.1504V24.6114H97.2477V17.2369H100.685V16.1361Z" fill="white"/>
<path d="M109.437 20.3737C109.437 17.6631 108.045 16.0202 106.162 16.0202C104.273 16.0202 102.885 17.6631 102.885 20.3737C102.885 23.0802 104.273 24.7272 106.162 24.7272C108.045 24.7272 109.437 23.0843 109.437 20.3737ZM108.35 20.3737C108.35 22.4387 107.412 23.5602 106.162 23.5602C104.909 23.5602 103.975 22.4387 103.975 20.3737C103.975 18.3087 104.909 17.1872 106.162 17.1872C107.412 17.1872 108.35 18.3087 108.35 20.3737Z" fill="white"/>
<path d="M112.305 24.6114H113.402V21.6318H114.893C116.58 21.6318 117.415 20.4441 117.415 18.8798C117.415 17.3197 116.587 16.1361 114.897 16.1361H112.305V24.6114ZM113.402 20.5475V17.2328H114.78C115.866 17.2328 116.31 17.9197 116.31 18.8798C116.31 19.8399 115.866 20.5475 114.794 20.5475H113.402Z" fill="white"/>
<path d="M126.519 20.3737C126.519 17.6631 125.127 16.0202 123.244 16.0202C121.355 16.0202 119.967 17.6631 119.967 20.3737C119.967 23.0802 121.355 24.7272 123.244 24.7272C125.127 24.7272 126.519 23.0843 126.519 20.3737ZM125.432 20.3737C125.432 22.4387 124.494 23.5602 123.244 23.5602C121.991 23.5602 121.057 22.4387 121.057 20.3737C121.057 18.3087 121.991 17.1872 123.244 17.1872C124.494 17.1872 125.432 18.3087 125.432 20.3737Z" fill="white"/>
<path d="M128.836 26.6598H129.887V24.6114H134.77V26.6474H135.821V23.5271H134.998V16.1361H130.512L130.342 19.7157C130.232 22.0746 129.802 23.0471 129.316 23.5271H128.836V26.6598ZM130.608 23.5271C131.024 22.7533 131.304 21.5076 131.393 19.7157L131.507 17.2369H133.946V23.5271H130.608Z" fill="white"/>
<path d="M107.208 38.9853C107.208 41.2333 105.644 43.0557 103.715 43.0557C101.786 43.0557 100.222 41.2333 100.222 38.9853C100.222 36.7372 101.786 34.9148 103.715 34.9148C105.644 34.9148 107.208 36.7372 107.208 38.9853Z" fill="#272722"/>
<path fill-rule="evenodd" clip-rule="evenodd" d="M103.715 41.8904C105.091 41.8904 106.208 40.5897 106.208 38.9853C106.208 37.3808 105.091 36.0801 103.715 36.0801C102.338 36.0801 101.222 37.3808 101.222 38.9853C101.222 40.5897 102.338 41.8904 103.715 41.8904ZM103.715 43.0557C105.644 43.0557 107.208 41.2333 107.208 38.9853C107.208 36.7372 105.644 34.9148 103.715 34.9148C101.786 34.9148 100.222 36.7372 100.222 38.9853C100.222 41.2333 101.786 43.0557 103.715 43.0557Z" fill="white"/>
<path d="M5.88081 145.696H0.27002V154.171H1.36377V146.788H4.78706V154.171H5.88081V145.696Z" fill="white"/>
<path d="M15.0992 148.452C14.8506 146.639 13.6326 145.58 12.0949 145.58C10.2128 145.58 8.82435 147.223 8.82435 149.933C8.82435 152.644 10.2057 154.287 12.0949 154.287C13.693 154.287 14.8613 153.12 15.0992 151.444L13.9913 151.44C13.803 152.524 13.0218 153.12 12.102 153.12C10.8556 153.12 9.91455 152.007 9.91455 149.933C9.91455 147.877 10.8521 146.747 12.1056 146.747C13.0324 146.747 13.8101 147.355 13.9913 148.452H15.0992Z" fill="white"/>
<path d="M22.2198 154.171H23.5585L20.5578 149.528L23.5763 145.696H22.2162L19.386 149.275H19.0095V145.696H17.9122V154.171H19.0095V150.372H19.7624L22.2198 154.171Z" fill="white"/>
<path d="M32.1262 149.933C32.1262 147.223 30.7342 145.58 28.8521 145.58C26.9628 145.58 25.5744 147.223 25.5744 149.933C25.5744 152.64 26.9628 154.287 28.8521 154.287C30.7342 154.287 32.1262 152.644 32.1262 149.933ZM31.0396 149.933C31.0396 151.998 30.1021 153.12 28.8521 153.12C27.5985 153.12 26.6646 151.998 26.6646 149.933C26.6646 147.868 27.5985 146.747 28.8521 146.747C30.1021 146.747 31.0396 147.868 31.0396 149.933Z" fill="white"/>
<path d="M34.9943 154.171H37.7819C39.4723 154.171 40.2357 153.19 40.2357 151.891C40.2357 150.579 39.4474 149.838 38.7265 149.793V149.71C39.3941 149.511 39.9517 148.982 39.9517 147.922C39.9517 146.668 39.2059 145.696 37.6576 145.696H34.9943V154.171ZM36.0916 153.074V150.36H37.7144C38.5951 150.36 39.1455 151.022 39.1455 151.829C39.1455 152.54 38.7301 153.074 37.6754 153.074H36.0916ZM36.0916 149.362V146.784H37.5902C38.4602 146.784 38.8757 147.318 38.8757 148.021C38.8757 148.841 38.3004 149.362 37.5617 149.362H36.0916Z" fill="white"/>
<path d="M20.9848 133.77C20.9848 136.018 19.421 137.841 17.4919 137.841C15.5629 137.841 13.999 136.018 13.999 133.77C13.999 131.522 15.5629 129.7 17.4919 129.7C19.421 129.7 20.9848 131.522 20.9848 133.77Z" fill="#131313"/>
<path fill-rule="evenodd" clip-rule="evenodd" d="M17.4919 136.676C18.8687 136.676 19.9848 135.375 19.9848 133.77C19.9848 132.166 18.8687 130.865 17.4919 130.865C16.1151 130.865 14.999 132.166 14.999 133.77C14.999 135.375 16.1151 136.676 17.4919 136.676ZM17.4919 137.841C19.421 137.841 20.9848 136.018 20.9848 133.77C20.9848 131.522 19.421 129.7 17.4919 129.7C15.5629 129.7 13.999 131.522 13.999 133.77C13.999 136.018 15.5629 137.841 17.4919 137.841Z" fill="white"/>
<path d="M163.482 178.259H165.748V185.634H166.841V178.259H169.11V177.158H163.482V178.259Z" fill="white"/>
<path d="M171.854 185.634H174.642C176.332 185.634 177.096 184.653 177.096 183.353C177.096 182.042 176.307 181.301 175.587 181.255V181.173C176.254 180.974 176.812 180.444 176.812 179.385C176.812 178.131 176.066 177.158 174.518 177.158H171.854V185.634ZM172.952 184.537V181.822H174.574C175.455 181.822 176.006 182.484 176.006 183.291C176.006 184.003 175.59 184.537 174.535 184.537H172.952ZM172.952 180.825V178.247H174.45C175.32 178.247 175.736 178.781 175.736 179.484C175.736 180.304 175.16 180.825 174.422 180.825H172.952Z" fill="white"/>
<path d="M179.897 185.634H184.5V184.533H180.995V181.938H184.219V180.842H180.995V178.259H184.457V177.158H179.897V185.634Z" fill="white"/>
<path d="M187.423 185.634H188.52V182.654H190.011C191.698 182.654 192.533 181.466 192.533 179.902C192.533 178.342 191.705 177.158 190.015 177.158H187.423V185.634ZM188.52 181.57V178.255H189.898C190.984 178.255 191.428 178.942 191.428 179.902C191.428 180.862 190.984 181.57 189.912 181.57H188.52Z" fill="white"/>
<path d="M196.427 180.577V177.158H195.326V185.634H198.05C199.669 185.634 200.596 184.583 200.593 183.064C200.596 181.549 199.669 180.577 198.05 180.577H196.427ZM196.427 181.653H198.05C198.991 181.653 199.509 182.282 199.509 183.047C199.509 183.834 198.991 184.558 198.05 184.558H196.427V181.653Z" fill="white"/>
<path d="M215.023 181.659C215.023 183.907 213.459 185.729 211.53 185.729C209.601 185.729 208.037 183.907 208.037 181.659C208.037 179.411 209.601 177.588 211.53 177.588C213.459 177.588 215.023 179.411 215.023 181.659Z" fill="#4D5648"/>
<path fill-rule="evenodd" clip-rule="evenodd" d="M211.53 184.564C212.907 184.564 214.023 183.263 214.023 181.659C214.023 180.054 212.907 178.754 211.53 178.754C210.153 178.754 209.037 180.054 209.037 181.659C209.037 183.263 210.153 184.564 211.53 184.564ZM211.53 185.729C213.459 185.729 215.023 183.907 215.023 181.659C215.023 179.411 213.459 177.588 211.53 177.588C209.601 177.588 208.037 179.411 208.037 181.659C208.037 183.907 209.601 185.729 211.53 185.729Z" fill="white"/>
<path d="M261.651 211.272V202.797H259.059C257.372 202.797 256.541 203.893 256.541 205.453C256.541 206.591 256.985 207.456 257.876 207.841L256.264 211.272H257.514L258.991 208.065C259.016 208.065 259.038 208.065 259.062 208.065H260.554V211.272H261.651ZM260.554 206.964H259.162C258.093 206.964 257.646 206.409 257.646 205.453C257.646 204.493 258.093 203.893 259.176 203.893H260.554V206.964Z" fill="white"/>
<path d="M264.746 211.272H265.843V208.292H267.334C269.021 208.292 269.856 207.105 269.856 205.54C269.856 203.98 269.028 202.797 267.338 202.797H264.746V211.272ZM265.843 207.208V203.893H267.221C268.307 203.893 268.751 204.58 268.751 205.54C268.751 206.5 268.307 207.208 267.235 207.208H265.843Z" fill="white"/>
<path d="M278.96 207.034C278.96 204.324 277.568 202.681 275.686 202.681C273.796 202.681 272.408 204.324 272.408 207.034C272.408 209.741 273.796 211.388 275.686 211.388C277.568 211.388 278.96 209.745 278.96 207.034ZM277.873 207.034C277.873 209.099 276.936 210.221 275.686 210.221C274.432 210.221 273.498 209.099 273.498 207.034C273.498 204.969 274.432 203.848 275.686 203.848C276.936 203.848 277.873 204.969 277.873 207.034Z" fill="white"/>
<path d="M287.868 205.553C287.62 203.74 286.402 202.681 284.864 202.681C282.982 202.681 281.593 204.324 281.593 207.034C281.593 209.745 282.975 211.388 284.864 211.388C286.462 211.388 287.63 210.221 287.868 208.545L286.76 208.541C286.572 209.625 285.791 210.221 284.871 210.221C283.625 210.221 282.684 209.107 282.684 207.034C282.684 204.977 283.621 203.848 284.875 203.848C285.801 203.848 286.579 204.456 286.76 205.553H287.868Z" fill="white"/>
<path d="M290.131 211.272H290.443C292.098 211.272 292.496 209.84 292.592 207.117L292.705 203.881H295.188V211.272H296.271V202.797H291.672L291.548 206.778C291.47 209.232 291.214 210.13 290.344 210.154L290.131 210.163V211.272Z" fill="white"/>
<path d="M299.983 211.272L300.651 209.029H303.492L304.156 211.272H305.32L302.703 202.797H301.436L298.818 211.272H299.983ZM300.97 207.953L302.043 204.336H302.1L303.172 207.953H300.97Z" fill="white"/>
<path d="M307.871 211.272H310.658C312.349 211.272 313.112 210.291 313.112 208.992C313.112 207.68 312.324 206.939 311.603 206.893V206.811C312.271 206.612 312.828 206.082 312.828 205.023C312.828 203.769 312.082 202.797 310.534 202.797H307.871V211.272ZM308.968 210.175V207.46H310.591C311.472 207.46 312.022 208.123 312.022 208.93C312.022 209.641 311.606 210.175 310.552 210.175H308.968ZM308.968 206.463V203.885H310.467C311.337 203.885 311.752 204.419 311.752 205.122C311.752 205.942 311.177 206.463 310.438 206.463H308.968Z" fill="white"/>
<path d="M315.363 211.272H315.676C317.331 211.272 317.728 209.84 317.824 207.117L317.938 203.881H320.42V211.272H321.503V202.797H316.904L316.78 206.778C316.702 209.232 316.446 210.13 315.576 210.154L315.363 210.163V211.272Z" fill="white"/>
<path d="M325.709 206.215V202.797H324.608V211.272H327.332C328.951 211.272 329.878 210.221 329.875 208.702C329.878 207.187 328.951 206.215 327.332 206.215H325.709ZM325.709 207.291H327.332C328.273 207.291 328.792 207.92 328.792 208.685C328.792 209.472 328.273 210.196 327.332 210.196H325.709V207.291Z" fill="white"/>
<path d="M247.334 207.102C247.334 209.35 245.771 211.172 243.842 211.172C241.912 211.172 240.349 209.35 240.349 207.102C240.349 204.854 241.912 203.031 243.842 203.031C245.771 203.031 247.334 204.854 247.334 207.102Z" fill="#47443E"/>
<path fill-rule="evenodd" clip-rule="evenodd" d="M243.842 210.007C245.218 210.007 246.334 208.706 246.334 207.102C246.334 205.498 245.218 204.197 243.842 204.197C242.465 204.197 241.349 205.498 241.349 207.102C241.349 208.706 242.465 210.007 243.842 210.007ZM243.842 211.172C245.771 211.172 247.334 209.35 247.334 207.102C247.334 204.854 245.771 203.031 243.842 203.031C241.912 203.031 240.349 204.854 240.349 207.102C240.349 209.35 241.912 211.172 243.842 211.172Z" fill="white"/>
<path d="M339.802 132.876V141.351H340.846V135.214H340.913L343.058 141.339H343.925L346.07 135.218H346.137V141.351H347.181V132.876H345.849L343.534 139.464H343.449L341.133 132.876H339.802Z" fill="white"/>
<path d="M351.076 141.351L351.744 139.108H354.585L355.249 141.351H356.414L353.796 132.876H352.529L349.911 141.351H351.076ZM352.063 138.032L353.136 134.416H353.193L354.265 138.032H352.063Z" fill="white"/>
<path d="M358.964 141.351H360.061V137.656H363.687V141.351H364.788V132.876H363.687V136.559H360.061V132.876H358.964V141.351Z" fill="white"/>
<path d="M367.527 133.977H369.793V141.351H370.886V133.977H373.156V132.876H367.527V133.977Z" fill="white"/>
<path d="M376.414 141.467H376.911C378.048 141.467 378.424 140.727 378.744 139.882L381.258 132.876H380.108L378.41 137.776L376.503 132.876H375.338L377.895 139.237L377.792 139.539C377.636 139.982 377.394 140.342 376.851 140.342H376.414V141.467Z" fill="white"/>
<path d="M383.796 141.351H384.893V138.372H386.385C388.071 138.372 388.906 137.184 388.906 135.62C388.906 134.06 388.079 132.876 386.388 132.876H383.796V141.351ZM384.893 137.288V133.973H386.271C387.358 133.973 387.802 134.66 387.802 135.62C387.802 136.58 387.358 137.288 386.285 137.288H384.893Z" fill="white"/>
<path d="M398.01 137.114C398.01 134.403 396.618 132.76 394.736 132.76C392.847 132.76 391.458 134.403 391.458 137.114C391.458 139.82 392.847 141.467 394.736 141.467C396.618 141.467 398.01 139.824 398.01 137.114ZM396.923 137.114C396.923 139.179 395.986 140.3 394.736 140.3C393.482 140.3 392.548 139.179 392.548 137.114C392.548 135.049 393.482 133.927 394.736 133.927C395.986 133.927 396.923 135.049 396.923 137.114Z" fill="white"/>
<path d="M400.878 141.351H403.666C405.356 141.351 406.119 140.371 406.119 139.071C406.119 137.759 405.331 137.019 404.61 136.973V136.89C405.278 136.692 405.835 136.162 405.835 135.103C405.835 133.849 405.09 132.876 403.541 132.876H400.878V141.351ZM401.975 140.255V137.54H403.598C404.479 137.54 405.029 138.202 405.029 139.009C405.029 139.721 404.614 140.255 403.559 140.255H401.975ZM401.975 136.543V133.965H403.474C404.344 133.965 404.759 134.498 404.759 135.202C404.759 136.021 404.184 136.543 403.445 136.543H401.975Z" fill="white"/>
<path d="M415.238 137.114C415.238 134.403 413.846 132.76 411.964 132.76C410.075 132.76 408.687 134.403 408.687 137.114C408.687 139.82 410.075 141.467 411.964 141.467C413.846 141.467 415.238 139.824 415.238 137.114ZM414.152 137.114C414.152 139.179 413.214 140.3 411.964 140.3C410.711 140.3 409.777 139.179 409.777 137.114C409.777 135.049 410.711 133.927 411.964 133.927C413.214 133.927 414.152 135.049 414.152 137.114Z" fill="white"/>
<path d="M335.53 148.079C335.53 150.328 333.966 152.15 332.037 152.15C330.108 152.15 328.544 150.328 328.544 148.079C328.544 145.831 330.108 144.009 332.037 144.009C333.966 144.009 335.53 145.831 335.53 148.079Z" fill="#93A47C"/>
<path fill-rule="evenodd" clip-rule="evenodd" d="M332.037 150.985C333.414 150.985 334.53 149.684 334.53 148.079C334.53 146.475 333.414 145.174 332.037 145.174C330.661 145.174 329.544 146.475 329.544 148.079C329.544 149.684 330.661 150.985 332.037 150.985ZM332.037 152.15C333.966 152.15 335.53 150.328 335.53 148.079C335.53 145.831 333.966 144.009 332.037 144.009C330.108 144.009 328.544 145.831 328.544 148.079C328.544 150.328 330.108 152.15 332.037 152.15Z" fill="white"/>
<path d="M396.62 173.985H397.958L394.958 169.342L397.976 165.509H396.616L393.786 169.089H393.409V165.509H392.312V173.985H393.409V170.186H394.162L396.62 173.985Z" fill="white"/>
<path d="M406.526 169.747C406.526 167.036 405.134 165.394 403.252 165.394C401.363 165.394 399.974 167.036 399.974 169.747C399.974 172.454 401.363 174.101 403.252 174.101C405.134 174.101 406.526 172.458 406.526 169.747ZM405.439 169.747C405.439 171.812 404.502 172.934 403.252 172.934C401.998 172.934 401.064 171.812 401.064 169.747C401.064 167.682 401.998 166.561 403.252 166.561C404.502 166.561 405.439 167.682 405.439 169.747Z" fill="white"/>
<path d="M408.733 166.61H410.998V173.985H412.092V166.61H414.361V165.509H408.733V166.61Z" fill="white"/>
<path d="M417.105 173.985H421.707V172.884H418.202V170.289H421.427V169.193H418.202V166.61H421.665V165.509H417.105V173.985Z" fill="white"/>
<path d="M424.08 173.985H424.392C426.047 173.985 426.445 172.553 426.541 169.83L426.655 166.594H429.137V173.985H430.22V165.509H425.621L425.497 169.49C425.419 171.944 425.163 172.843 424.293 172.867L424.08 172.876V173.985Z" fill="white"/>
<path d="M434.426 168.928V165.509H433.325V173.985H436.049C437.668 173.985 438.595 172.934 438.591 171.415C438.595 169.9 437.668 168.928 436.049 168.928H434.426ZM434.426 170.004H436.049C436.99 170.004 437.508 170.633 437.508 171.398C437.508 172.185 436.99 172.909 436.049 172.909H434.426V170.004Z" fill="white"/>
<path d="M441.429 173.985H442.527V170.289H446.152V173.985H447.253V165.509H446.152V169.193H442.527V165.509H441.429V173.985Z" fill="white"/>
<path d="M450.351 165.509V173.985H451.36L455.056 167.769H455.124V173.985H456.221V165.509H455.205L451.505 171.733H451.438V165.509H450.351Z" fill="white"/>
<path d="M459.467 165.509V168.307C459.464 170.198 460.447 170.943 462.038 170.943C462.738 170.943 463.342 170.84 463.864 170.666V173.985H464.95V165.509H463.864V169.573C463.32 169.743 462.646 169.846 462.038 169.846C461.09 169.846 460.55 169.474 460.55 168.307V165.509H459.467Z" fill="white"/>
<path d="M471.265 169.213H468.04V170.285H471.265V169.213Z" fill="white"/>
<path d="M476.723 165.509H475.7C475.661 165.741 475.107 166.813 474.045 166.813V167.864C474.869 167.864 475.441 167.483 475.561 167.235H475.622V173.985H476.723V165.509Z" fill="white"/>
<path d="M413.249 187.767C413.249 190.015 411.685 191.837 409.756 191.837C407.827 191.837 406.263 190.015 406.263 187.767C406.263 185.519 407.827 183.696 409.756 183.696C411.685 183.696 413.249 185.519 413.249 187.767Z" fill="#738F8C"/>
<path fill-rule="evenodd" clip-rule="evenodd" d="M409.756 190.672C411.133 190.672 412.249 189.371 412.249 187.767C412.249 186.162 411.133 184.862 409.756 184.862C408.379 184.862 407.263 186.162 407.263 187.767C407.263 189.371 408.379 190.672 409.756 190.672ZM409.756 191.837C411.685 191.837 413.249 190.015 413.249 187.767C413.249 185.519 411.685 183.696 409.756 183.696C407.827 183.696 406.263 185.519 406.263 187.767C406.263 190.015 407.827 191.837 409.756 191.837Z" fill="white"/>
<path d="M528.336 210.955H523.801V219.43H524.898V212.056H528.336V210.955Z" fill="white"/>
<path d="M530.522 219.43H530.834C532.489 219.43 532.887 217.998 532.983 215.275L533.096 212.039H535.579V219.43H536.662V210.955H532.063L531.939 214.936C531.861 217.39 531.605 218.288 530.735 218.313L530.522 218.321V219.43Z" fill="white"/>
<path d="M540.374 219.43L541.042 217.187H543.883L544.547 219.43H545.711L543.094 210.955H541.827L539.209 219.43H540.374ZM541.361 216.111L542.434 212.494H542.491L543.563 216.111H541.361Z" fill="white"/>
<path d="M550.694 219.546C552.179 219.546 553.269 218.512 553.265 217.105C553.269 216.033 552.711 215.263 551.745 215.089V215.023C552.505 214.795 552.999 214.1 552.995 213.148C552.999 211.903 552.122 210.839 550.723 210.839C549.387 210.839 548.315 211.779 548.279 213.157H549.341C549.366 212.379 549.995 211.907 550.708 211.907C551.451 211.907 551.937 212.432 551.934 213.215C551.937 214.034 551.373 214.572 550.566 214.572H549.952V215.615H550.566C551.575 215.615 552.157 216.211 552.157 217.063C552.157 217.887 551.543 218.445 550.687 218.445C549.899 218.445 549.284 217.974 549.242 217.22H548.127C548.173 218.603 549.224 219.546 550.694 219.546Z" fill="white"/>
<path d="M562.525 215.193C562.525 212.482 561.132 210.839 559.25 210.839C557.361 210.839 555.973 212.482 555.973 215.193C555.973 217.899 557.361 219.546 559.25 219.546C561.132 219.546 562.525 217.903 562.525 215.193ZM561.438 215.193C561.438 217.258 560.5 218.379 559.25 218.379C557.997 218.379 557.063 217.258 557.063 215.193C557.063 213.128 557.997 212.006 559.25 212.006C560.5 212.006 561.438 213.128 561.438 215.193Z" fill="white"/>
<path d="M565.393 219.43H568.18C569.871 219.43 570.634 218.449 570.634 217.15C570.634 215.838 569.846 215.097 569.125 215.052V214.969C569.792 214.771 570.35 214.241 570.35 213.181C570.35 211.927 569.604 210.955 568.056 210.955H565.393V219.43ZM566.49 218.334V215.619H568.113C568.993 215.619 569.544 216.281 569.544 217.088C569.544 217.8 569.128 218.334 568.074 218.334H566.49ZM566.49 214.622V212.043H567.988C568.858 212.043 569.274 212.577 569.274 213.281C569.274 214.1 568.699 214.622 567.96 214.622H566.49Z" fill="white"/>
<path d="M515.415 215.244C515.415 217.492 513.851 219.314 511.922 219.314C509.993 219.314 508.429 217.492 508.429 215.244C508.429 212.996 509.993 211.173 511.922 211.173C513.851 211.173 515.415 212.996 515.415 215.244Z" fill="#789186"/>
<path fill-rule="evenodd" clip-rule="evenodd" d="M511.922 218.149C513.298 218.149 514.415 216.848 514.415 215.244C514.415 213.639 513.298 212.338 511.922 212.338C510.545 212.338 509.429 213.639 509.429 215.244C509.429 216.848 510.545 218.149 511.922 218.149ZM511.922 219.314C513.851 219.314 515.415 217.492 515.415 215.244C515.415 212.996 513.851 211.173 511.922 211.173C509.993 211.173 508.429 212.996 508.429 215.244C508.429 217.492 509.993 219.314 511.922 219.314Z" fill="white"/>
<path d="M531.567 135.817H525.956V144.293H527.05V136.91H530.473V144.293H531.567V135.817Z" fill="white"/>
<path d="M534.745 144.293H539.347V143.192H535.842V140.597H539.066V139.5H535.842V136.918H539.304V135.817H534.745V144.293Z" fill="white"/>
<path d="M542.27 144.293H543.367V141.313H544.859C546.546 141.313 547.38 140.125 547.38 138.561C547.38 137.001 546.553 135.817 544.862 135.817H542.27V144.293ZM543.367 140.229V136.914H544.745C545.832 136.914 546.276 137.601 546.276 138.561C546.276 139.521 545.832 140.229 544.759 140.229H543.367Z" fill="white"/>
<path d="M550.167 135.817V144.293H551.211V138.156H551.278L553.423 144.28H554.29L556.434 138.16H556.502V144.293H557.546V135.817H556.214L553.899 142.406H553.814L551.498 135.817H550.167Z" fill="white"/>
<path d="M561.935 139.236V135.817H560.834V144.293H563.558C565.177 144.293 566.104 143.242 566.1 141.723C566.104 140.208 565.177 139.236 563.558 139.236H561.935ZM561.935 140.312H563.558C564.499 140.312 565.017 140.941 565.017 141.706C565.017 142.492 564.499 143.217 563.558 143.217H561.935V140.312Z" fill="white"/>
<path d="M548.597 155.206C548.597 157.454 547.033 159.276 545.104 159.276C543.175 159.276 541.611 157.454 541.611 155.206C541.611 152.958 543.175 151.135 545.104 151.135C547.033 151.135 548.597 152.958 548.597 155.206Z" fill="#8CBABB"/>
<path fill-rule="evenodd" clip-rule="evenodd" d="M545.104 158.111C546.481 158.111 547.597 156.81 547.597 155.206C547.597 153.601 546.481 152.301 545.104 152.301C543.727 152.301 542.611 153.601 542.611 155.206C542.611 156.81 543.727 158.111 545.104 158.111ZM545.104 159.276C547.033 159.276 548.597 157.454 548.597 155.206C548.597 152.958 547.033 151.135 545.104 151.135C543.175 151.135 541.611 152.958 541.611 155.206C541.611 157.454 543.175 159.276 545.104 159.276Z" fill="white"/>
<path d="M598.441 180.592H600.707V187.966H601.801V180.592H604.07V179.491H598.441V180.592Z" fill="white"/>
<path d="M607.911 179.491H606.814V187.966H607.911V184.366H609.186C609.385 186.692 610.699 188.082 612.435 188.082C614.317 188.082 615.709 186.439 615.709 183.729C615.709 181.018 614.317 179.375 612.435 179.375C610.649 179.375 609.31 180.844 609.168 183.294H607.911V179.491ZM614.623 183.729C614.623 185.794 613.685 186.915 612.435 186.915C611.182 186.915 610.248 185.794 610.248 183.729C610.248 181.663 611.182 180.542 612.435 180.542C613.685 180.542 614.623 181.663 614.623 183.729Z" fill="white"/>
<path d="M618.392 179.491V187.966H619.436V181.829H619.503L621.648 187.954H622.515L624.66 181.833H624.727V187.966H625.771V179.491H624.439L622.124 186.079H622.039L619.724 179.491H618.392Z" fill="white"/>
<path d="M629.052 187.966H633.654V186.865H630.149V184.271H633.374V183.174H630.149V180.592H633.612V179.491H629.052V187.966Z" fill="white"/>
<path d="M636.577 187.966H637.675V184.271H641.3V187.966H642.401V179.491H641.3V183.174H637.675V179.491H636.577V187.966Z" fill="white"/>
<path d="M646.607 182.909V179.491H645.506V187.966H648.23C649.849 187.966 650.776 186.915 650.773 185.396C650.776 183.882 649.849 182.909 648.23 182.909H646.607ZM646.607 183.985H648.23C649.171 183.985 649.69 184.614 649.69 185.38C649.69 186.166 649.171 186.89 648.23 186.89H646.607V183.985Z" fill="white"/>
<path d="M605.355 200.998C605.355 203.246 603.791 205.068 601.862 205.068C599.933 205.068 598.369 203.246 598.369 200.998C598.369 198.75 599.933 196.927 601.862 196.927C603.791 196.927 605.355 198.75 605.355 200.998Z" fill="#414847"/>
<path fill-rule="evenodd" clip-rule="evenodd" d="M601.862 203.903C603.239 203.903 604.355 202.602 604.355 200.998C604.355 199.393 603.239 198.093 601.862 198.093C600.485 198.093 599.369 199.393 599.369 200.998C599.369 202.602 600.485 203.903 601.862 203.903ZM601.862 205.068C603.791 205.068 605.355 203.246 605.355 200.998C605.355 198.75 603.791 196.927 601.862 196.927C599.933 196.927 598.369 198.75 598.369 200.998C598.369 203.246 599.933 205.068 601.862 205.068Z" fill="white"/>
<path d="M697.456 209.364C697.456 206.654 696.064 205.011 694.182 205.011C692.293 205.011 690.904 206.654 690.904 209.364C690.904 212.071 692.293 213.718 694.182 213.718C696.064 213.718 697.456 212.075 697.456 209.364ZM696.369 209.364C696.369 211.429 695.432 212.551 694.182 212.551C692.928 212.551 691.994 211.429 691.994 209.364C691.994 207.299 692.928 206.178 694.182 206.178C695.432 206.178 696.369 207.299 696.369 209.364Z" fill="white"/>
<path d="M700.324 205.127V213.602H701.368V207.465H701.436L703.581 213.589H704.447L706.592 207.469H706.659V213.602H707.703V205.127H706.372L704.056 211.715H703.971L701.656 205.127H700.324Z" fill="white"/>
<path d="M717.025 207.883C716.776 206.07 715.558 205.011 714.021 205.011C712.138 205.011 710.75 206.654 710.75 209.364C710.75 212.075 712.131 213.718 714.021 213.718C715.619 213.718 716.787 212.551 717.025 210.875L715.917 210.871C715.729 211.955 714.947 212.551 714.028 212.551C712.781 212.551 711.84 211.438 711.84 209.364C711.84 207.308 712.778 206.178 714.031 206.178C714.958 206.178 715.736 206.786 715.917 207.883H717.025Z" fill="white"/>
<path d="M724.145 213.602H725.484L722.483 208.959L725.502 205.127H724.142L721.312 208.706H720.935V205.127H719.838V213.602H720.935V209.803H721.688L724.145 213.602Z" fill="white"/>
<path d="M711.02 185.731C711.02 187.979 709.456 189.801 707.527 189.801C705.598 189.801 704.034 187.979 704.034 185.731C704.034 183.483 705.598 181.66 707.527 181.66C709.456 181.66 711.02 183.483 711.02 185.731Z" fill="#577379"/>
<path fill-rule="evenodd" clip-rule="evenodd" d="M707.527 188.636C708.903 188.636 710.02 187.335 710.02 185.731C710.02 184.126 708.903 182.826 707.527 182.826C706.15 182.826 705.034 184.126 705.034 185.731C705.034 187.335 706.15 188.636 707.527 188.636ZM707.527 189.801C709.456 189.801 711.02 187.979 711.02 185.731C711.02 183.483 709.456 181.66 707.527 181.66C705.598 181.66 704.034 183.483 704.034 185.731C704.034 187.979 705.598 189.801 707.527 189.801Z" fill="white"/>
<path d="M805.381 121.541H806.72L803.719 116.898L806.737 113.066H805.377L802.547 116.646H802.171V113.066H801.073V121.541H802.171V117.742H802.923L805.381 121.541Z" fill="white"/>
<path d="M809.331 121.541H810.428V118.562H811.92C813.607 118.562 814.441 117.374 814.441 115.81C814.441 114.25 813.614 113.066 811.923 113.066H809.331V121.541ZM810.428 117.478V114.163H811.806C812.893 114.163 813.337 114.85 813.337 115.81C813.337 116.77 812.893 117.478 811.82 117.478H810.428Z" fill="white"/>
<path d="M817.07 121.541L817.738 119.298H820.579L821.243 121.541H822.408L819.791 113.066H818.523L815.906 121.541H817.07ZM818.058 118.222L819.13 114.606H819.187L820.259 118.222H818.058Z" fill="white"/>
<path d="M830.657 115.822C830.408 114.01 829.19 112.95 827.652 112.95C825.77 112.95 824.382 114.593 824.382 117.304C824.382 120.014 825.763 121.657 827.652 121.657C829.25 121.657 830.419 120.49 830.657 118.814L829.549 118.81C829.361 119.894 828.579 120.49 827.66 120.49C826.413 120.49 825.472 119.377 825.472 117.304C825.472 115.247 826.41 114.117 827.663 114.117C828.59 114.117 829.368 114.726 829.549 115.822H830.657Z" fill="white"/>
<path d="M833.47 121.541H834.567V117.846H838.193V121.541H839.294V113.066H838.193V116.749H834.567V113.066H833.47V121.541Z" fill="white"/>
<path d="M848.709 117.304C848.709 114.593 847.317 112.95 845.435 112.95C843.546 112.95 842.157 114.593 842.157 117.304C842.157 120.01 843.546 121.657 845.435 121.657C847.317 121.657 848.709 120.014 848.709 117.304ZM847.622 117.304C847.622 119.369 846.685 120.49 845.435 120.49C844.181 120.49 843.247 119.369 843.247 117.304C843.247 115.239 844.181 114.117 845.435 114.117C846.685 114.117 847.622 115.239 847.622 117.304Z" fill="white"/>
<path d="M856.428 121.541V113.066H853.836C852.149 113.066 851.318 114.163 851.318 115.723C851.318 116.861 851.762 117.726 852.653 118.111L851.041 121.541H852.291L853.768 118.334C853.793 118.334 853.814 118.334 853.839 118.334H855.331V121.541H856.428ZM855.331 117.233H853.939C852.87 117.233 852.422 116.679 852.422 115.723C852.422 114.763 852.87 114.163 853.953 114.163H855.331V117.233Z" fill="white"/>
<path d="M859.522 121.541H860.62V118.562H862.111C863.798 118.562 864.633 117.374 864.633 115.81C864.633 114.25 863.805 113.066 862.115 113.066H859.522V121.541ZM860.62 117.478V114.163H861.998C863.084 114.163 863.528 114.85 863.528 115.81C863.528 116.77 863.084 117.478 862.012 117.478H860.62Z" fill="white"/>
<path d="M873.459 115.822C873.211 114.01 871.993 112.95 870.455 112.95C868.573 112.95 867.185 114.593 867.185 117.304C867.185 120.014 868.566 121.657 870.455 121.657C872.053 121.657 873.222 120.49 873.459 118.814L872.351 118.81C872.163 119.894 871.382 120.49 870.462 120.49C869.216 120.49 868.275 119.377 868.275 117.304C868.275 115.247 869.212 114.117 870.466 114.117C871.393 114.117 872.17 114.726 872.351 115.822H873.459Z" fill="white"/>
<path d="M880.58 121.541H881.919L878.918 116.898L881.937 113.066H880.576L877.746 116.646H877.37V113.066H876.272V121.541H877.37V117.742H878.123L880.58 121.541Z" fill="white"/>
<path d="M845.95 130.78C845.95 133.028 844.386 134.85 842.457 134.85C840.528 134.85 838.964 133.028 838.964 130.78C838.964 128.532 840.528 126.709 842.457 126.709C844.386 126.709 845.95 128.532 845.95 130.78Z" fill="#3E403A"/>
<path fill-rule="evenodd" clip-rule="evenodd" d="M842.457 133.685C843.834 133.685 844.95 132.384 844.95 130.78C844.95 129.175 843.834 127.875 842.457 127.875C841.08 127.875 839.964 129.175 839.964 130.78C839.964 132.384 841.08 133.685 842.457 133.685ZM842.457 134.85C844.386 134.85 845.95 133.028 845.95 130.78C845.95 128.532 844.386 126.709 842.457 126.709C840.528 126.709 838.964 128.532 838.964 130.78C838.964 133.028 840.528 134.85 842.457 134.85Z" fill="white"/>
<path d="M875.895 188.082H876.392C877.528 188.082 877.905 187.341 878.224 186.497L880.739 179.491H879.588L877.891 184.391L875.984 179.491H874.819L877.376 185.851L877.273 186.154C877.116 186.596 876.875 186.956 876.332 186.956H875.895V188.082Z" fill="white"/>
<path d="M882.726 187.966H883.038C884.693 187.966 885.091 186.534 885.187 183.811L885.301 180.575H887.783V187.966H888.866V179.491H884.267L884.143 183.472C884.065 185.926 883.809 186.824 882.939 186.849L882.726 186.857V187.966Z" fill="white"/>
<path d="M892.578 187.966L893.246 185.723H896.087L896.751 187.966H897.916L895.298 179.491H894.031L891.413 187.966H892.578ZM893.565 184.647L894.638 181.03H894.695L895.767 184.647H893.565Z" fill="white"/>
<path d="M900.466 187.966H901.563V184.271H905.189V187.966H906.29V179.491H905.189V183.174H901.563V179.491H900.466V187.966Z" fill="white"/>
<path d="M912.516 183.195H909.292V184.266H912.516V183.195Z" fill="white"/>
<path d="M915.397 188.082H915.894C917.03 188.082 917.407 187.341 917.726 186.497L920.241 179.491H919.09L917.393 184.391L915.486 179.491H914.321L916.878 185.851L916.775 186.154C916.618 186.596 916.377 186.956 915.834 186.956H915.397V188.082Z" fill="white"/>
<path d="M922.228 190.015H923.279V187.966H928.162V190.002H929.213V186.882H928.389V179.491H923.904L923.734 183.071C923.624 185.429 923.194 186.402 922.707 186.882H922.228V190.015ZM924 186.882C924.415 186.108 924.696 184.862 924.785 183.071L924.898 180.592H927.338V186.882H924Z" fill="white"/>
<path d="M931.684 185.276C931.823 186.882 932.725 188.082 934.479 188.082C936.233 188.082 937.355 186.555 937.355 184.18V183.298C937.355 180.923 936.219 179.375 934.419 179.375C932.707 179.375 931.823 180.592 931.681 182.23H932.799C932.913 181.13 933.357 180.476 934.419 180.476C935.587 180.476 936.24 181.577 936.244 183.29H933.563V184.374H936.24C936.194 185.868 935.633 186.998 934.479 186.998C933.389 186.998 932.924 186.394 932.799 185.276H931.684Z" fill="white"/>
<path d="M908.988 162.902C908.988 165.151 907.424 166.973 905.495 166.973C903.566 166.973 902.002 165.151 902.002 162.902C902.002 160.654 903.566 158.832 905.495 158.832C907.424 158.832 908.988 160.654 908.988 162.902Z" fill="#181A19"/>
<path fill-rule="evenodd" clip-rule="evenodd" d="M905.495 165.808C906.872 165.808 907.988 164.507 907.988 162.902C907.988 161.298 906.872 159.997 905.495 159.997C904.118 159.997 903.002 161.298 903.002 162.902C903.002 164.507 904.118 165.808 905.495 165.808ZM905.495 166.973C907.424 166.973 908.988 165.151 908.988 162.902C908.988 160.654 907.424 158.832 905.495 158.832C903.566 158.832 902.002 160.654 902.002 162.902C902.002 165.151 903.566 166.973 905.495 166.973Z" fill="white"/>
</svg>
